<svg width="88" height="19" viewBox="0 0 88 19" fill="none" xmlns="http://www.w3.org/2000/svg">
<path d="M0.848 0.912H7.136C9.936 0.912 12.104 1.656 13.64 3.144C15.192 4.632 15.968 6.728 15.968 9.432C15.968 12.152 15.192 14.264 13.64 15.768C12.104 17.256 9.936 18 7.136 18H0.848V0.912ZM6.944 15.48C10.88 15.48 12.848 13.464 12.848 9.432C12.848 5.432 10.88 3.432 6.944 3.432H3.944V15.48H6.944ZM29.5213 12.096H21.1693C21.2333 13.392 21.5533 14.352 22.1293 14.976C22.7213 15.584 23.5933 15.888 24.7453 15.888C26.0733 15.888 27.3053 15.456 28.4413 14.592L29.3053 16.656C28.7293 17.12 28.0173 17.496 27.1693 17.784C26.3373 18.056 25.4893 18.192 24.6253 18.192C22.6413 18.192 21.0813 17.632 19.9453 16.512C18.8093 15.392 18.2413 13.856 18.2413 11.904C18.2413 10.672 18.4893 9.576 18.9853 8.616C19.4813 7.656 20.1773 6.912 21.0733 6.384C21.9693 5.84 22.9853 5.568 24.1213 5.568C25.7853 5.568 27.0973 6.112 28.0573 7.2C29.0333 8.272 29.5213 9.752 29.5213 11.64V12.096ZM24.1933 7.728C23.3933 7.728 22.7373 7.968 22.2253 8.448C21.7293 8.912 21.4093 9.592 21.2653 10.488H26.9053C26.8093 9.576 26.5293 8.888 26.0653 8.424C25.6173 7.96 24.9933 7.728 24.1933 7.728ZM38.9977 5.568C41.8937 5.568 43.3417 7.232 43.3417 10.56V18H40.3417V10.704C40.3417 9.744 40.1577 9.048 39.7897 8.616C39.4217 8.168 38.8537 7.944 38.0857 7.944C37.1737 7.944 36.4377 8.24 35.8777 8.832C35.3177 9.408 35.0377 10.176 35.0377 11.136V18H32.0617V9.312C32.0617 8.032 31.9977 6.888 31.8697 5.88H34.6777L34.8937 7.872C35.3097 7.136 35.8697 6.568 36.5737 6.168C37.2937 5.768 38.1017 5.568 38.9977 5.568ZM50.3386 8.136V13.56C50.3386 14.984 51.0026 15.696 52.3306 15.696C52.6986 15.696 53.0986 15.632 53.5306 15.504V17.88C53.0026 18.072 52.3626 18.168 51.6106 18.168C50.2346 18.168 49.1786 17.784 48.4426 17.016C47.7066 16.248 47.3386 15.144 47.3386 13.704V8.136H45.0106V5.88H47.3386V2.928L50.3386 1.92V5.88H53.5546V8.136H50.3386Z" fill="#0052FF"/>
<path d="M55.8564 18V0.335999H57.8004V18H55.8564ZM66.2071 18.168C65.1351 18.168 64.1911 17.92 63.3751 17.424C62.5751 16.912 61.9511 16.192 61.5031 15.264C61.0711 14.32 60.8551 13.216 60.8551 11.952C60.8551 10.688 61.0791 9.584 61.5271 8.64C61.9751 7.696 62.5991 6.96 63.3991 6.432C64.2151 5.904 65.1511 5.64 66.2071 5.64C67.3111 5.64 68.2471 5.912 69.0151 6.456C69.7831 7 70.3031 7.776 70.5751 8.784L70.2871 8.976V5.928H72.2071V18H70.2871V14.88L70.5751 15.024C70.3031 16.032 69.7831 16.808 69.0151 17.352C68.2471 17.896 67.3111 18.168 66.2071 18.168ZM66.5911 16.56C67.7751 16.56 68.6871 16.16 69.3271 15.36C69.9671 14.544 70.2871 13.392 70.2871 11.904C70.2871 10.416 69.9591 9.272 69.3031 8.472C68.6631 7.672 67.7591 7.272 66.5911 7.272C65.4071 7.272 64.4791 7.688 63.8071 8.52C63.1511 9.336 62.8231 10.48 62.8231 11.952C62.8231 13.424 63.1511 14.56 63.8071 15.36C64.4791 16.16 65.4071 16.56 66.5911 16.56ZM75.9658 18V0.335999H77.9098V9.024L77.6458 8.784C77.9178 7.792 78.4378 7.024 79.2058 6.48C79.9738 5.92 80.9018 5.64 81.9898 5.64C83.0618 5.64 83.9978 5.896 84.7978 6.408C85.5978 6.92 86.2218 7.64 86.6698 8.568C87.1338 9.496 87.3658 10.592 87.3658 11.856C87.3658 13.12 87.1338 14.232 86.6698 15.192C86.2218 16.136 85.5898 16.872 84.7738 17.4C83.9738 17.912 83.0458 18.168 81.9898 18.168C80.9018 18.168 79.9738 17.896 79.2058 17.352C78.4378 16.808 77.9178 16.032 77.6458 15.024L77.9098 14.76V18H75.9658ZM81.6298 16.56C82.7978 16.56 83.7098 16.152 84.3658 15.336C85.0218 14.504 85.3498 13.344 85.3498 11.856C85.3498 10.4 85.0218 9.272 84.3658 8.472C83.7098 7.672 82.7978 7.272 81.6298 7.272C80.4298 7.272 79.5098 7.68 78.8698 8.496C78.2298 9.296 77.9098 10.432 77.9098 11.904C77.9098 13.392 78.2298 14.544 78.8698 15.36C79.5098 16.16 80.4298 16.56 81.6298 16.56Z" fill="#202020"/>
</svg>
